REM DIRINDEX 1\3,1\4,1\5,1\6,1\2\7,1\2\8,1\2\9,1\10
REM DIRNAME cjc056,folder01,folder02,folder03,folder04,folder05,folder06,folder07,folder08,folder09
TITLE ""
FILE "2-21 Level 5-709-719.mp3" MP3
  TRACK 01 AUDIO
    TITLE "0:"
    INDEX 01 00:00:00
  TRACK 02 AUDIO
    TITLE "10:cjc056_2459"
    INDEX 01 00:00:07
  TRACK 03 AUDIO
    TITLE "0:"
    INDEX 01 00:01:46
  TRACK 04 AUDIO
    TITLE "7:cjc056_2460"
    INDEX 01 00:02:20
  TRACK 05 AUDIO
    TITLE "0:"
    INDEX 01 00:03:23
  TRACK 06 AUDIO
    TITLE "8:cjc056_2461"
    INDEX 01 00:03:35
  TRACK 07 AUDIO
    TITLE "0:"
    INDEX 01 00:04:70
  TRACK 08 AUDIO
    TITLE "9:cjc056_2462"
    INDEX 01 00:05:09
  TRACK 09 AUDIO
    TITLE "0:"
    INDEX 01 00:07:35
  TRACK 10 AUDIO
    TITLE "7:cjc056_2463"
    INDEX 01 00:08:09
  TRACK 11 AUDIO
    TITLE "0:"
    INDEX 01 00:09:12
  TRACK 12 AUDIO
    TITLE "8:cjc056_2464"
    INDEX 01 00:09:26
  TRACK 13 AUDIO
    TITLE "0:"
    INDEX 01 00:10:57
  TRACK 14 AUDIO
    TITLE "9:cjc056_2465"
    INDEX 01 00:10:70
  TRACK 15 AUDIO
    TITLE "0:"
    INDEX 01 00:13:20
  TRACK 16 AUDIO
    TITLE "7:cjc056_2466"
    INDEX 01 00:13:71
  TRACK 17 AUDIO
    TITLE "0:"
    INDEX 01 00:15:01
  TRACK 18 AUDIO
    TITLE "8:cjc056_2467"
    INDEX 01 00:15:15
  TRACK 19 AUDIO
    TITLE "0:"
    INDEX 01 00:16:69
  TRACK 20 AUDIO
    TITLE "9:cjc056_2468"
    INDEX 01 00:17:08
  TRACK 21 AUDIO
    TITLE "0:"
    INDEX 01 00:19:65
  TRACK 22 AUDIO
    TITLE "7:cjc056_2469"
    INDEX 01 00:20:41
  TRACK 23 AUDIO
    TITLE "0:"
    INDEX 01 00:21:57
  TRACK 24 AUDIO
    TITLE "8:cjc056_2470"
    INDEX 01 00:21:70
  TRACK 25 AUDIO
    TITLE "0:"
    INDEX 01 00:23:67
  TRACK 26 AUDIO
    TITLE "9:cjc056_2471"
    INDEX 01 00:24:06
  TRACK 27 AUDIO
    TITLE "0:"
    INDEX 01 00:26:20
  TRACK 28 AUDIO
    TITLE "7:cjc056_2472"
    INDEX 01 00:26:73
  TRACK 29 AUDIO
    TITLE "0:"
    INDEX 01 00:28:19
  TRACK 30 AUDIO
    TITLE "8:cjc056_2473"
    INDEX 01 00:28:33
  TRACK 31 AUDIO
    TITLE "0:"
    INDEX 01 00:29:44
  TRACK 32 AUDIO
    TITLE "9:cjc056_2474"
    INDEX 01 00:29:56
  TRACK 33 AUDIO
    TITLE "0:"
    INDEX 01 00:33:17
  TRACK 34 AUDIO
    TITLE "7:cjc056_2475"
    INDEX 01 00:33:68
  TRACK 35 AUDIO
    TITLE "0:"
    INDEX 01 00:34:73
  TRACK 36 AUDIO
    TITLE "8:cjc056_2476"
    INDEX 01 00:35:10
  TRACK 37 AUDIO
    TITLE "0:"
    INDEX 01 00:36:21
  TRACK 38 AUDIO
    TITLE "9:cjc056_2477"
    INDEX 01 00:36:29
  TRACK 39 AUDIO
    TITLE "0:"
    INDEX 01 00:38:55
  TRACK 40 AUDIO
    TITLE "7:cjc056_2478"
    INDEX 01 00:39:33
  TRACK 41 AUDIO
    TITLE "0:"
    INDEX 01 00:40:34
  TRACK 42 AUDIO
    TITLE "8:cjc056_2479"
    INDEX 01 00:40:48
  TRACK 43 AUDIO
    TITLE "0:"
    INDEX 01 00:42:06
  TRACK 44 AUDIO
    TITLE "9:cjc056_2480"
    INDEX 01 00:42:12
  TRACK 45 AUDIO
    TITLE "0:"
    INDEX 01 00:44:71
  TRACK 46 AUDIO
    TITLE "7:cjc056_2481"
    INDEX 01 00:45:47
  TRACK 47 AUDIO
    TITLE "0:"
    INDEX 01 00:46:60
  TRACK 48 AUDIO
    TITLE "8:cjc056_2482"
    INDEX 01 00:46:70
  TRACK 49 AUDIO
    TITLE "0:"
    INDEX 01 00:48:55
  TRACK 50 AUDIO
    TITLE "9:cjc056_2483"
    INDEX 01 00:48:67
  TRACK 51 AUDIO
    TITLE "0:"
    INDEX 01 00:51:56
  TRACK 52 AUDIO
    TITLE "7:cjc056_2484"
    INDEX 01 00:52:28
  TRACK 53 AUDIO
    TITLE "0:"
    INDEX 01 00:53:41
  TRACK 54 AUDIO
    TITLE "8:cjc056_2485"
    INDEX 01 00:53:57
  TRACK 55 AUDIO
    TITLE "0:"
    INDEX 01 00:55:04
  TRACK 56 AUDIO
    TITLE "9:cjc056_2486"
    INDEX 01 00:55:18
  TRACK 57 AUDIO
    TITLE "0:"
    INDEX 01 00:57:54
  TRACK 58 AUDIO
    TITLE "7:cjc056_2487"
    INDEX 01 00:58:30
  TRACK 59 AUDIO
    TITLE "0:"
    INDEX 01 00:59:22
  TRACK 60 AUDIO
    TITLE "8:cjc056_2488"
    INDEX 01 00:59:36
  TRACK 61 AUDIO
    TITLE "0:"
    INDEX 01 01:01:29
  TRACK 62 AUDIO
    TITLE "9:cjc056_2489"
    INDEX 01 01:01:36
  TRACK 63 AUDIO
    TITLE "0:"
    INDEX 01 01:04:13
  TRACK 64 AUDIO
    TITLE "7:cjc056_2490"
    INDEX 01 01:04:64
  TRACK 65 AUDIO
    TITLE "0:"
    INDEX 01 01:06:00
  TRACK 66 AUDIO
    TITLE "8:cjc056_2491"
    INDEX 01 01:06:10
  TRACK 67 AUDIO
    TITLE "0:"
    INDEX 01 01:07:51
  TRACK 68 AUDIO
    TITLE "9:cjc056_2492"
    INDEX 01 01:07:63
  TRACK 69 AUDIO
    TITLE "0:"
    INDEX 01 01:10:30
